<?xml version="1.0" standalone="no"?>
<!DOCTYPE svg PUBLIC "-//W3C//DTD SVG 20010904//EN"
 "http://www.w3.org/TR/2001/REC-SVG-20010904/DTD/svg10.dtd">
<svg version="1.0" xmlns="http://www.w3.org/2000/svg"
 width="1152.000000pt" height="1152.000000pt" viewBox="0 0 1152.000000 1152.000000"
 preserveAspectRatio="xMidYMid meet">
<metadata>
Created by potrace 1.14, written by Peter Selinger 2001-2017
</metadata>
<g transform="translate(0.000000,1152.000000) scale(0.100000,-0.100000)"
fill="#000000" stroke="none">
<path d="M1840 7346 c-5 -5 -5 -17 1 -28 7 -13 6 -18 -2 -18 -8 0 -8 -4 1 -15
10 -12 10 -15 -1 -15 -10 0 -11 -2 -2 -8 7 -5 9 -13 3 -21 -4 -8 -4 -24 0 -37
6 -15 5 -26 -1 -30 -7 -4 -7 -10 0 -18 7 -9 7 -16 -1 -24 -9 -9 -9 -12 3 -12
12 0 12 -2 -1 -10 -11 -7 -11 -10 -2 -10 9 0 10 -5 3 -18 -6 -11 -6 -24 -1
-32 5 -9 5 -19 -1 -26 -14 -17 8 -29 56 -29 22 0 46 -5 54 -9 9 -6 12 -5 8 1
-7 12 122 11 142 -1 9 -6 12 -5 8 1 -8 13 61 11 82 -1 9 -6 12 -5 8 1 -7 12
122 11 142 -1 9 -6 12 -5 8 1 -8 13 61 11 82 -1 9 -6 12 -5 8 1 -7 12 132 11
152 -2 9 -5 12 -4 8 2 -7 12 122 11 142 -1 9 -6 12 -5 8 1 -8 13 61 11 82 -1
9 -6 12 -5 7 2 -9 14 46 11 56 -3 5 -6 8 -6 8 1 0 12 29 12 49 -1 9 -5 12 -4
7 3 -4 7 1 10 14 9 11 -1 20 -5 20 -9 0 -4 5 -8 11 -8 5 0 7 5 3 11 -4 7 -1
10 6 7 16 -5 21 -91 9 -125 -5 -14 -5 -23 1 -23 6 0 10 -5 10 -11 0 -5 -4 -8
-8 -5 -5 3 -9 -1 -9 -9 0 -8 4 -15 7 -15 9 0 5 -53 -4 -69 -4 -6 -1 -11 6 -11
9 0 9 -3 -2 -10 -8 -5 -10 -10 -5 -10 12 0 13 -90 1 -108 -4 -7 -3 -12 3 -12
10 0 8 -40 -3 -58 -3 -6 -2 -13 3 -17 10 -5 8 -36 -3 -54 -4 -5 0 -12 6 -15
10 -5 10 -7 1 -12 -9 -4 -9 -13 -2 -32 11 -29 11 -29 -2 -54 -6 -11 -5 -18 3
-20 8 -3 8 -9 0 -24 -8 -15 -8 -24 0 -32 8 -8 8 -15 -2 -27 -7 -8 -8 -15 -3
-15 10 0 10 -91 -1 -108 -4 -7 -3 -12 3 -12 10 0 7 -31 -4 -50 -3 -6 -1 -10 4
-10 6 0 11 -5 11 -11 0 -5 -4 -8 -8 -5 -5 3 -9 -1 -9 -9 0 -8 3 -15 7 -15 9 0
5 -94 -4 -109 -4 -6 -2 -11 3 -11 6 0 11 -5 11 -11 0 -5 -4 -8 -8 -5 -5 3 -9
-1 -9 -9 0 -8 4 -15 7 -15 9 0 6 -53 -4 -68 -3 -6 -1 -12 5 -14 9 -3 9 -9 0
-25 -7 -13 -7 -24 -2 -28 10 -5 7 -36 -3 -54 -4 -5 0 -12 6 -14 9 -4 10 -8 2
-14 -19 -14 0 -48 27 -48 13 -1 30 -5 38 -9 9 -6 12 -5 8 1 -8 13 215 11 225
-2 5 -6 8 -6 8 1 0 13 68 13 89 0 10 -7 12 -5 6 4 -6 10 -3 12 14 7 16 -4 21
-2 17 8 -2 7 -2 16 2 19 9 9 12 36 4 36 -4 0 -7 43 -7 95 0 52 3 95 8 95 10 0
4 23 -8 32 -6 5 -6 11 1 18 6 6 8 30 4 60 -4 28 -3 50 2 50 11 0 6 23 -7 32
-6 5 -6 11 2 19 7 7 9 19 3 34 -4 12 -4 28 0 35 5 8 5 21 0 31 -5 9 -6 19 -3
23 9 9 13 36 5 36 -9 0 -8 137 0 146 4 3 3 16 -2 29 -5 13 -6 26 -2 29 9 9 12
36 4 36 -9 0 -8 137 0 146 4 3 3 16 -2 29 -5 13 -6 26 -2 29 9 9 12 36 4 36
-4 0 -7 25 -7 55 0 30 3 55 7 55 11 0 5 23 -7 32 -6 5 -6 11 1 18 6 6 8 29 4
58 -10 82 -5 87 75 87 39 0 76 -4 84 -9 9 -6 12 -5 8 1 -8 13 61 11 82 -1 9
-6 12 -5 8 1 -7 12 132 11 152 -2 9 -5 12 -4 8 2 -7 12 122 11 142 -1 9 -6 12
-5 8 1 -8 13 61 11 82 -1 9 -6 12 -5 8 1 -7 12 122 11 142 -1 9 -6 12 -5 8 1
-8 13 61 11 82 -1 9 -6 12 -5 8 1 -7 12 132 11 152 -2 9 -5 12 -4 8 2 -4 6 17
9 58 8 64 -2 70 2 66 34 -2 8 2 10 10 5 9 -5 9 -3 3 7 -13 21 -13 100 0 92 6
-4 5 0 -1 8 -16 20 -10 95 6 91 7 -1 10 2 6 8 -3 6 -10 8 -14 6 -4 -3 -8 17
-8 44 -1 35 2 48 11 44 8 -5 8 -4 1 4 -13 15 -2801 22 -2815 8z"/>
<path d="M7676 7353 c-1 -2 -418 -3 -926 -3 -709 0 -921 -3 -912 -12 8 -8 12
-63 12 -175 0 -185 -13 -164 100 -167 30 -1 61 -5 69 -10 9 -6 12 -5 8 1 -8
13 61 11 82 -1 9 -6 12 -5 8 1 -7 12 122 11 142 -1 9 -6 12 -5 8 1 -8 13 61
11 82 -1 9 -6 12 -5 8 1 -7 12 122 11 142 -1 9 -6 12 -5 8 1 -8 13 61 11 82
-1 9 -6 12 -5 8 1 -7 12 122 11 142 -1 9 -6 12 -5 8 1 -8 13 61 11 82 -1 9 -6
12 -5 8 1 -8 12 122 11 142 -1 10 -6 12 -5 7 2 -5 8 0 11 16 9 l23 -4 5 -704
c5 -696 5 -704 25 -704 11 0 26 -4 34 -10 11 -7 13 -7 7 3 -6 9 -1 12 18 10
14 -2 28 -7 32 -11 4 -4 12 -7 18 -7 6 0 4 4 -4 10 -10 6 -1 8 28 7 23 -1 42
-5 42 -10 0 -4 6 -5 13 0 17 11 77 10 77 -2 0 -6 3 -5 8 1 9 14 64 13 74 -1 5
-6 8 -5 8 4 0 7 6 11 13 8 35 -13 40 7 38 172 0 126 2 160 12 155 9 -6 9 -4 1
7 -8 10 -12 166 -12 544 l0 530 111 0 c62 0 118 -4 126 -9 9 -6 12 -5 8 1 -8
13 61 11 82 -1 9 -6 12 -5 8 1 -7 12 122 11 142 -1 9 -6 12 -5 8 1 -8 13 61
11 82 -1 9 -6 12 -5 8 1 -7 12 122 11 142 -1 9 -6 12 -5 8 1 -8 13 61 11 82
-1 9 -6 12 -5 8 1 -7 12 122 11 142 -1 9 -6 12 -5 8 1 -8 13 61 11 82 -1 9 -6
12 -5 8 1 -4 6 19 9 61 9 l67 -1 2 60 c2 33 4 72 6 88 2 15 1 27 -2 27 -3 0
-5 40 -3 90 l3 90 -158 0 c-87 0 -306 1 -486 3 -181 1 -330 1 -331 0z"/>
<path d="M4340 6765 c0 -9 -69 -16 -177 -19 -18 -1 -33 -4 -33 -8 0 -4 -9 -5
-20 -3 -11 2 -20 1 -20 -3 0 -7 -20 -12 -62 -15 -9 -1 -15 -3 -13 -5 5 -6 -66
-44 -82 -45 -7 0 -11 -5 -10 -11 1 -6 -4 -10 -10 -8 -7 1 -13 -5 -13 -13 0 -8
-9 -19 -19 -25 -11 -5 -23 -19 -26 -30 -4 -11 -11 -18 -16 -15 -5 3 -6 -1 -3
-9 4 -9 0 -18 -9 -22 -9 -3 -13 -12 -10 -20 3 -8 0 -14 -7 -14 -6 0 -8 -4 -5
-10 3 -5 3 -16 -2 -22 -4 -7 -8 -17 -9 -23 -1 -5 -5 -23 -9 -40 -3 -16 -9 -61
-12 -100 -3 -38 -9 -75 -14 -81 -5 -6 -4 -15 4 -23 9 -9 9 -14 -2 -20 -11 -7
-11 -9 0 -14 12 -4 11 -7 -1 -16 -12 -8 -12 -11 -1 -11 11 0 11 -3 0 -17 -11
-13 -11 -15 -1 -9 10 6 12 1 10 -21 -2 -15 -7 -31 -13 -35 -6 -5 -6 -8 1 -8
12 0 12 -56 0 -67 -3 -3 -1 -12 5 -20 9 -10 8 -17 -2 -30 -10 -11 -10 -14 -1
-9 6 4 12 2 12 -3 0 -6 -6 -11 -12 -11 -9 0 -9 -3 -2 -8 13 -9 13 -102 -1
-102 -6 0 -7 -3 0 -8 14 -10 15 -56 1 -64 -8 -5 -7 -8 3 -8 11 0 11 -3 0 -17
-10 -11 -10 -14 -1 -9 7 4 12 2 12 -8 0 -8 -6 -17 -12 -19 -10 -4 -9 -6 1 -6
11 -1 11 -4 0 -18 -11 -13 -11 -15 -1 -9 10 6 12 1 10 -20 -3 -27 -1 -28 44
-28 25 -1 50 -4 54 -9 4 -4 12 -7 18 -7 6 0 5 4 -3 9 -8 5 16 8 62 7 42 -1 80
-5 83 -9 4 -4 12 -7 18 -7 6 0 5 4 -3 9 -8 5 15 8 60 7 41 -2 79 -1 86 2 7 2
12 27 13 65 0 34 1 86 3 115 1 28 0 52 -4 52 -3 0 -3 18 1 40 4 22 4 40 -1 40
-5 0 -6 6 -4 13 10 27 13 67 6 67 -5 0 -5 18 -1 40 4 22 3 40 -2 40 -5 0 -4
10 3 21 7 15 8 19 0 15 -7 -4 -9 -1 -5 8 8 22 10 115 2 110 -3 -2 -4 4 -2 13
8 39 11 103 3 103 -4 0 -4 13 1 29 4 16 6 32 4 34 -3 3 474 5 1060 5 l1066 0
0 -173 c0 -129 -3 -175 -12 -178 -10 -4 -10 -6 0 -6 9 -1 12 -39 12 -156 0
-117 -3 -155 -12 -155 -10 0 -10 -3 0 -9 10 -6 13 -26 10 -69 -2 -49 0 -62 14
-71 10 -6 21 -11 25 -11 5 0 2 4 -6 9 -8 5 19 8 70 7 46 0 87 -5 91 -11 5 -6
8 -6 8 1 0 8 35 11 111 10 67 -1 113 3 115 9 8 23 10 106 2 111 -5 3 -6 10 -2
15 9 15 10 129 1 129 -4 0 -4 8 1 18 4 9 7 35 5 57 -3 52 -3 103 1 138 2 15 0
30 -5 32 -4 3 -4 19 1 36 5 18 6 39 2 48 -10 21 -9 62 1 79 5 6 4 12 0 12 -5
0 -9 9 -10 20 -1 13 2 18 10 13 9 -5 9 -3 0 8 -7 8 -14 34 -15 57 -2 23 -7 42
-12 42 -4 0 -6 13 -4 29 3 18 0 28 -6 24 -5 -4 -7 1 -3 10 3 10 3 17 -1 17 -9
0 -37 70 -34 83 1 5 -2 6 -8 2 -10 -6 -15 9 -10 30 1 6 -1 7 -5 4 -3 -4 -22 8
-42 27 -19 18 -44 36 -54 39 -10 4 -19 14 -19 23 0 13 -2 14 -9 3 -6 -9 -11
-10 -15 -2 -4 6 -16 11 -27 11 -11 0 -18 4 -15 8 2 4 -3 8 -12 9 -41 2 -72 8
-72 13 0 3 -12 6 -27 6 -16 1 -65 3 -110 4 -56 2 -80 7 -76 14 5 7 2 7 -8 0
-15 -12 -63 -13 -75 -1 -4 3 -14 3 -23 -2 -20 -9 -32 -8 -50 3 -9 6 -12 5 -8
0 3 -6 -16 -10 -43 -10 -27 0 -46 4 -43 9 3 5 -2 5 -13 0 -23 -11 -34 -11 -53
1 -9 6 -12 5 -8 0 3 -6 -16 -10 -43 -10 -27 0 -46 4 -43 9 3 5 -3 4 -14 -2
-14 -7 -23 -7 -30 0 -8 8 -13 7 -17 0 -4 -6 -12 -11 -17 -11 -6 0 -8 4 -5 9 4
5 -2 8 -11 6 -10 -2 -18 -4 -18 -5 0 -1 -17 -3 -37 -5 -24 -2 -38 1 -38 9 0 7
-3 6 -9 -2 -4 -8 -12 -14 -16 -14 -4 0 -12 6 -16 14 -5 7 -9 8 -9 2 0 -12 -28
-12 -47 -1 -6 4 -14 3 -18 -3 -3 -5 -11 -10 -16 -10 -6 0 -7 5 -3 11 5 8 1 8
-13 0 -14 -7 -23 -7 -30 0 -8 8 -13 7 -17 0 -4 -6 -12 -11 -17 -11 -6 0 -8 4
-5 9 4 5 -2 8 -11 6 -10 -2 -18 -4 -18 -5 0 -1 -17 -3 -37 -5 -24 -2 -38 1
-38 9 0 7 -3 6 -9 -2 -4 -8 -12 -14 -16 -14 -4 0 -12 6 -16 14 -5 7 -9 8 -9 2
0 -12 -28 -12 -47 -1 -6 4 -14 3 -18 -3 -3 -5 -11 -10 -16 -10 -6 0 -8 4 -5 9
4 5 -2 8 -11 6 -10 -2 -18 -4 -18 -5 0 -1 -17 -3 -37 -5 -24 -2 -38 1 -38 9 0
7 -3 6 -9 -2 -4 -8 -12 -14 -16 -14 -4 0 -12 6 -16 14 -5 7 -9 8 -9 2 0 -12
-28 -12 -47 -1 -6 4 -14 3 -18 -3 -3 -5 -11 -10 -16 -10 -6 0 -8 4 -5 9 4 5
-2 8 -11 6 -10 -2 -18 -4 -18 -5 0 -1 -17 -3 -37 -5 -24 -2 -38 1 -38 9 0 7
-3 6 -9 -2 -4 -8 -12 -14 -16 -14 -4 0 -12 6 -16 14 -5 7 -9 8 -9 2 0 -12 -28
-12 -47 -1 -6 4 -14 3 -18 -3 -3 -5 -11 -10 -16 -10 -6 0 -8 4 -5 9 4 5 -2 8
-11 6 -10 -2 -18 -4 -18 -5 0 -1 -17 -3 -37 -5 -24 -2 -38 1 -38 9 0 7 -3 6
-9 -2 -4 -8 -12 -14 -16 -14 -4 0 -12 6 -16 14 -7 11 -9 11 -9 -1 0 -10 -3
-11 -13 -2 -8 6 -17 8 -20 4 -12 -12 -77 -11 -77 1 0 7 -3 6 -9 -2 -4 -8 -12
-14 -16 -14 -4 0 -12 6 -16 14 -5 7 -9 9 -9 3z"/>
<path d="M8374 6763 c7 -13 -16 -15 -146 -17 -18 -1 -36 -5 -39 -9 -3 -4 -17
-9 -30 -11 -13 -2 -35 -7 -49 -12 -14 -4 -25 -6 -26 -3 0 2 -8 -4 -18 -14 -10
-9 -21 -15 -26 -12 -4 3 -11 -2 -14 -11 -3 -8 -9 -14 -13 -11 -5 2 -25 -14
-45 -35 -20 -21 -33 -38 -30 -38 4 0 0 -6 -9 -13 -9 -7 -17 -16 -19 -22 -1 -5
-7 -21 -13 -35 -12 -30 -14 -36 -16 -54 0 -8 -8 -22 -17 -30 -9 -9 -11 -16 -4
-16 6 0 8 -4 5 -10 -3 -5 -9 -31 -12 -57 -3 -27 -10 -54 -17 -62 -8 -11 -8
-13 2 -7 6 4 12 3 12 -1 0 -5 -6 -15 -12 -22 -7 -8 -8 -11 -2 -8 11 6 10 -55
-1 -73 -3 -6 -1 -10 6 -10 7 0 8 -4 2 -12 -11 -15 -11 -28 0 -45 5 -7 4 -13 0
-13 -10 0 -10 -41 1 -58 4 -7 3 -12 -3 -12 -5 0 -8 -10 -5 -22 3 -13 5 -52 4
-88 -1 -36 0 -74 0 -85 2 -25 1 -34 -3 -65 -2 -14 0 -37 4 -51 4 -14 2 -33 -3
-43 -6 -11 -6 -21 1 -30 7 -9 7 -16 0 -23 -12 -12 17 -47 32 -38 5 4 9 0 9 -7
0 -9 3 -9 8 -2 9 14 224 13 234 -1 5 -6 8 -6 8 1 0 8 20 12 53 12 94 -1 93 -1
92 35 0 17 3 37 7 44 5 6 5 14 -2 18 -5 3 -10 11 -10 16 0 6 6 7 13 3 7 -5 6
0 -3 11 -8 10 -13 21 -12 24 20 33 23 43 13 37 -14 -9 -14 7 0 21 8 8 8 13 0
17 -8 5 -8 13 0 28 8 15 8 19 0 14 -14 -9 -14 7 0 21 8 8 8 13 0 17 -8 5 -8
13 0 28 8 15 8 19 0 14 -14 -9 -14 7 0 21 8 8 8 13 0 17 -8 5 -8 13 0 28 8 15
8 19 0 14 -14 -9 -14 7 0 21 8 8 8 13 0 17 -8 5 -8 13 0 28 8 15 8 19 0 14 -6
-4 -11 -3 -11 3 0 5 5 13 11 17 7 4 8 9 0 17 -7 7 -7 16 0 30 8 14 8 18 0 13
-14 -9 -14 7 0 21 8 8 8 13 0 17 -8 5 -8 13 0 28 8 15 8 19 0 14 -6 -4 -11 -3
-11 3 0 5 5 13 10 16 6 4 7 12 3 18 -11 19 -11 71 1 79 7 5 7 8 -2 8 -7 0 -10
5 -7 10 3 6 15 10 26 10 14 0 18 -4 13 -12 -6 -10 -5 -10 7 -2 18 15 2089 17
2089 2 0 -5 -4 -7 -8 -4 -5 3 -9 -1 -9 -9 0 -8 4 -12 7 -10 4 3 8 -6 8 -20 0
-16 -5 -22 -12 -18 -6 4 -5 -1 3 -11 12 -14 12 -19 2 -26 -11 -6 -11 -9 0 -13
12 -4 11 -7 -1 -16 -9 -7 -10 -11 -3 -11 14 0 14 -39 -1 -59 -8 -11 -8 -13 1
-8 15 9 14 -32 -1 -52 -8 -11 -8 -13 2 -7 6 4 12 3 12 -1 0 -5 -6 -15 -12 -22
-8 -8 -8 -11 -2 -8 15 9 14 -55 -1 -65 -7 -5 -6 -8 1 -8 6 0 12 -11 12 -25 0
-14 -6 -25 -12 -25 -6 0 -4 -5 4 -10 13 -9 13 -11 0 -20 -9 -6 -10 -10 -3 -10
14 0 14 -39 -1 -59 -8 -11 -8 -13 1 -8 15 9 14 -32 -1 -52 -8 -11 -8 -13 2 -7
6 4 12 3 12 -1 0 -5 -6 -15 -12 -22 -8 -8 -8 -11 -2 -8 15 9 14 -55 -1 -65 -7
-5 -6 -8 1 -8 6 0 12 -11 12 -25 0 -14 -6 -25 -12 -25 -6 0 -4 -5 4 -10 13 -9
13 -11 0 -20 -11 -7 -11 -10 -2 -10 7 0 10 -4 7 -10 -7 -11 1 -12 92 -12 43
-1 60 -4 56 -12 -4 -6 0 -5 9 2 11 9 18 10 23 2 3 -5 12 -10 18 -10 8 0 7 3
-2 9 -8 5 16 8 62 7 42 -1 80 -5 83 -9 4 -4 12 -7 18 -7 6 0 4 5 -4 10 -11 8
-9 9 13 8 15 -1 27 -7 27 -13 0 -6 3 -6 8 1 4 6 16 14 27 18 11 4 15 10 10 14
-16 11 -19 45 -3 36 10 -6 11 -5 1 7 -12 15 -12 77 0 96 4 7 2 15 -4 19 -8 4
-7 9 2 15 9 6 10 9 2 9 -13 0 -12 18 1 39 6 9 5 12 -1 8 -12 -8 -11 51 0 70 4
7 3 14 -3 18 -5 3 -10 11 -10 16 0 6 5 7 12 3 7 -5 8 -3 2 7 -12 20 -12 69 1
69 5 0 4 4 -3 9 -19 12 -19 15 -2 36 8 11 10 16 4 12 -8 -5 -11 4 -9 31 2 20
4 37 5 37 1 0 3 8 5 18 2 9 0 15 -5 12 -4 -2 -9 30 -10 73 -1 42 -3 92 -4 109
0 18 -3 33 -6 33 -3 0 -7 11 -8 25 -3 36 -6 49 -14 55 -4 3 -9 15 -11 25 -5
29 -39 95 -49 95 -4 0 -8 5 -8 11 0 15 -58 66 -92 80 -15 6 -28 15 -28 20 0 5
-3 8 -7 7 -16 -4 -73 14 -69 21 3 4 -9 5 -26 3 -18 -3 -28 -1 -25 5 3 5 -11 9
-31 9 -129 2 -191 8 -185 18 4 6 -1 5 -11 -3 -15 -13 -19 -13 -27 0 -6 10 -9
10 -9 1 0 -14 -21 -12 -32 3 -5 6 -8 6 -8 -1 0 -12 -28 -12 -47 -1 -6 4 -14 3
-18 -3 -3 -5 -11 -10 -16 -10 -6 0 -8 4 -5 9 4 5 -2 8 -11 6 -10 -2 -18 -4
-18 -5 0 -1 -17 -3 -37 -5 -24 -2 -38 1 -38 9 0 7 -3 6 -9 -2 -11 -17 -21 -17
-32 0 -5 7 -9 8 -9 3 0 -13 -49 -13 -69 -1 -8 6 -12 5 -8 0 3 -6 -16 -10 -43
-10 -27 0 -46 4 -43 9 3 5 -2 5 -13 0 -23 -11 -34 -11 -53 1 -9 6 -12 5 -8 0
3 -6 -16 -10 -43 -10 -27 0 -46 4 -43 9 3 5 -3 4 -14 -2 -14 -7 -23 -7 -30 0
-8 8 -13 7 -17 0 -4 -6 -12 -11 -17 -11 -6 0 -8 4 -5 9 4 5 -2 8 -11 6 -10 -2
-18 -4 -18 -5 0 -1 -17 -3 -37 -5 -24 -2 -38 1 -38 9 0 7 -3 6 -9 -2 -4 -8
-12 -14 -16 -14 -4 0 -12 6 -16 14 -5 7 -9 8 -9 2 0 -12 -28 -12 -47 -1 -6 4
-14 3 -18 -3 -3 -5 -11 -10 -16 -10 -6 0 -7 5 -3 11 5 8 1 8 -13 0 -14 -7 -23
-7 -30 0 -8 8 -13 7 -17 0 -4 -6 -12 -11 -17 -11 -6 0 -8 4 -5 9 4 5 -2 8 -11
6 -10 -2 -18 -4 -18 -5 0 -1 -17 -3 -37 -5 -24 -2 -38 1 -38 9 0 7 -3 6 -9 -2
-4 -8 -12 -14 -16 -14 -4 0 -12 6 -16 14 -5 7 -9 8 -9 2 0 -12 -28 -12 -47 -1
-6 4 -14 3 -18 -3 -3 -5 -11 -10 -16 -10 -6 0 -7 5 -3 11 4 7 -3 6 -17 -2 -26
-13 -27 -13 -48 4 -8 7 -12 7 -9 2 4 -7 -12 -11 -42 -11 -27 0 -46 4 -43 9 3
5 -2 5 -13 0 -23 -11 -34 -11 -53 1 -9 6 -12 5 -8 0 3 -6 -16 -10 -43 -10 -27
0 -47 3 -44 7 2 4 -4 6 -13 4 -10 -2 -18 -4 -18 -5 0 -1 -17 -3 -37 -5 -24 -2
-38 1 -38 9 0 7 -3 6 -9 -2 -4 -8 -12 -14 -16 -14 -4 0 -12 6 -16 14 -5 7 -9
8 -9 2 0 -12 -29 -12 -49 1 -10 5 -12 4 -7 -3 10 -16 -7 -15 -23 1 -11 10 -13
10 -7 0 4 -8 2 -13 -6 -13 -8 0 -20 6 -27 13 -11 10 -13 10 -7 0z"/>
<path d="M574 6211 c-2 -2 -4 -287 -4 -632 l0 -627 33 -4 c43 -5 69 1 64 15
-2 7 0 20 5 30 5 9 5 17 1 17 -4 0 -8 117 -8 259 0 152 4 257 9 254 5 -4 5 0
0 8 -13 21 -11 33 6 41 13 6 13 7 0 7 -13 1 -15 41 -14 304 0 167 4 309 7 314
7 11 -89 24 -99 14z"/>
<path d="M834 6026 c-5 -5 -8 -75 -7 -155 4 -288 4 -573 1 -577 -2 -2 -1 -29
2 -59 3 -31 3 -58 0 -60 -4 -2 -4 -25 0 -50 6 -36 4 -48 -9 -55 -9 -5 -11 -10
-5 -10 18 0 24 -61 7 -67 -9 -4 -11 -8 -5 -12 10 -6 19 -157 10 -166 -2 -2 -1
-30 2 -60 3 -31 3 -58 -1 -61 -4 -2 -5 -12 -3 -22 4 -14 14 -16 54 -14 l49 4
-2 569 c-1 313 1 569 4 569 4 0 3 18 -1 40 -4 22 -4 40 0 40 4 0 4 18 0 40 -4
22 -4 40 -1 40 4 0 5 15 3 34 -4 32 -6 34 -46 38 -24 1 -47 -1 -52 -6z"/>
<path d="M44 5945 c2 -16 -1 -36 -8 -44 -8 -11 -8 -13 2 -7 6 4 12 2 12 -3 0
-6 -6 -11 -12 -11 -8 0 -9 -3 -3 -8 15 -11 19 -46 4 -36 -9 5 -9 3 -3 -7 13
-20 12 -89 0 -89 -7 0 -8 -3 -1 -8 15 -11 17 -32 2 -32 -8 0 -8 -3 2 -9 13 -8
13 -12 0 -27 -9 -11 -9 -15 -2 -10 7 4 13 2 13 -3 0 -6 -6 -11 -12 -11 -8 0
-9 -3 -3 -8 15 -11 19 -46 4 -36 -9 5 -9 3 -3 -7 13 -20 12 -89 0 -89 -7 0 -8
-3 -1 -8 15 -11 17 -32 3 -32 -9 0 -9 -3 1 -9 13 -8 13 -12 0 -27 -9 -11 -9
-15 -2 -10 7 4 13 2 13 -3 0 -6 -6 -11 -12 -11 -8 0 -9 -3 -3 -8 15 -11 19
-46 4 -36 -9 5 -9 3 -3 -7 13 -20 12 -89 0 -89 -7 0 -8 -3 -1 -8 15 -11 17
-32 3 -32 -9 0 -9 -3 1 -9 13 -8 13 -12 0 -27 -9 -11 -9 -15 -2 -10 7 4 13 2
13 -3 0 -6 -6 -11 -12 -11 -8 0 -9 -3 -3 -8 15 -11 19 -46 4 -36 -9 5 -9 3 -3
-7 13 -20 12 -89 0 -89 -7 0 -8 -3 -1 -8 15 -11 17 -32 2 -32 -8 0 -8 -3 2 -9
13 -8 13 -12 0 -27 -9 -11 -9 -15 -1 -10 6 4 12 2 12 -3 0 -6 -6 -11 -12 -11
-8 0 -9 -3 -3 -8 15 -11 19 -46 4 -36 -9 5 -9 3 -3 -7 13 -20 12 -89 0 -89 -7
0 -8 -3 -1 -8 15 -11 17 -32 2 -32 -8 0 -8 -3 2 -9 13 -8 13 -12 0 -27 -9 -11
-9 -15 -1 -10 6 4 12 2 12 -3 0 -6 -6 -11 -12 -11 -8 0 -9 -3 -3 -8 15 -11 19
-46 4 -36 -9 5 -9 3 -3 -7 9 -15 11 -20 13 -42 1 -10 15 -13 51 -12 28 1 53 5
57 8 3 4 2 7 -4 7 -12 0 -11 229 1 249 6 10 5 12 -3 7 -14 -9 -11 30 3 53 6
10 5 12 -2 7 -19 -12 -10 43 10 61 15 13 18 14 18 2 0 -8 -6 -21 -12 -28 -11
-11 -10 -12 0 -7 15 9 13 -29 -2 -53 -6 -10 -5 -12 3 -7 14 9 11 -30 -3 -53
-6 -9 -5 -12 2 -7 6 4 12 -4 14 -19 2 -14 6 -24 9 -23 3 2 13 -3 22 -10 10 -9
17 -10 22 -2 9 14 28 13 19 -2 -5 -10 -4 -10 6 -1 9 9 13 59 13 195 0 154 2
186 16 203 15 18 15 19 0 7 -15 -11 -16 -7 -17 40 0 35 6 60 17 73 15 18 15
19 -2 6 -15 -12 -17 -11 -14 5 1 11 7 25 11 33 6 10 5 12 -2 7 -16 -10 -15 16
1 33 10 11 10 13 0 7 -14 -8 -18 6 -6 18 11 10 12 37 2 30 -11 -6 -7 25 5 45
6 10 5 12 -2 7 -8 -5 -12 0 -12 13 0 12 6 21 13 21 7 0 8 3 2 8 -16 11 -19 46
-3 36 10 -6 11 -5 1 7 -14 18 -14 58 1 78 8 11 8 13 -1 7 -16 -9 -15 42 1 63
8 11 8 13 -1 7 -9 -5 -13 0 -13 14 0 13 4 19 12 14 7 -5 8 -3 4 5 -5 7 -14 10
-22 7 -8 -3 -14 0 -14 6 0 6 -6 5 -17 -3 -15 -12 -16 -12 -10 6 7 20 7 20 -8
0 -14 -17 -17 -18 -25 -5 -12 18 -12 17 -14 -99 -1 -66 -4 -85 -16 -86 -13 -2
-15 24 -16 181 -2 198 -5 224 -28 205 -10 -9 -16 -9 -21 -1 -5 8 -10 8 -20 0
-10 -8 -16 -7 -24 7 -8 15 -9 13 -7 -12z m133 -413 c-2 -15 -11 -26 -20 -28
-14 -2 -16 4 -13 24 5 32 3 29 21 29 10 0 14 -8 12 -25z m0 -60 c-2 -15 -11
-26 -20 -28 -14 -2 -16 4 -13 24 5 32 3 29 21 29 10 0 14 -8 12 -25z m0 -60
c-2 -15 -11 -26 -20 -28 -14 -2 -16 4 -13 24 5 32 3 29 21 29 10 0 14 -8 12
-25z m0 -60 c-2 -15 -11 -26 -20 -28 -14 -2 -16 4 -13 24 5 32 3 29 21 29 10
0 14 -8 12 -25z m-2 -138 c0 -79 -4 -107 -16 -119 -13 -14 -15 -4 -13 102 1
65 2 118 3 119 0 0 7 1 14 1 10 0 13 -25 12 -103z m3 -139 c-1 -14 -11 -33
-21 -43 -17 -15 -18 -15 -15 10 3 23 24 58 34 58 2 0 3 -11 2 -25z m0 -60 c-1
-14 -11 -33 -21 -43 -17 -15 -18 -15 -15 10 3 23 24 58 34 58 2 0 3 -11 2 -25z"/>
<path d="M480 5960 c-7 -4 -20 -6 -29 -3 -15 4 -16 -44 -15 -588 0 -448 3
-594 12 -597 7 -2 9 -9 5 -15 -5 -9 -3 -9 8 0 8 6 24 10 34 9 31 -5 52 11 49
36 -1 13 -3 23 -4 23 -1 0 -3 44 -4 98 0 59 3 97 9 97 7 0 7 3 0 8 -15 10 -16
28 -5 57 7 17 6 25 -1 25 -8 0 -8 4 0 13 6 8 8 17 4 21 -11 11 -10 116 2 116
5 0 4 4 -4 9 -9 6 -10 11 -2 15 6 4 8 13 4 19 -11 18 -10 117 2 117 5 0 4 4
-4 9 -9 6 -10 11 -2 15 6 4 8 13 4 19 -11 18 -10 117 2 117 5 0 4 4 -4 9 -9 6
-10 11 -2 15 6 4 8 13 4 19 -11 18 -10 117 2 117 7 0 7 3 0 8 -15 10 -16 28
-5 57 7 17 6 25 -1 25 -8 0 -8 4 0 14 7 9 8 17 3 20 -6 3 -9 23 -7 45 2 32 -2
41 -20 49 -12 6 -28 7 -35 2z"/>
<path d="M964 5217 c1 -293 3 -530 6 -528 3 2 15 -1 28 -8 17 -9 22 -9 22 1 0
10 2 10 8 1 14 -22 31 2 33 48 1 25 -1 50 -4 56 -4 7 -3 14 1 17 5 3 8 18 5
33 -8 59 -8 93 0 93 5 0 6 8 2 18 -4 9 -6 35 -5 57 1 22 2 55 2 73 -1 36 -1
165 0 227 0 22 0 63 -2 90 -1 28 -1 55 0 60 5 23 1 121 -5 136 -3 10 -2 20 4
23 6 4 7 15 2 29 -6 15 -4 26 8 35 9 7 10 10 3 7 -9 -5 -13 -1 -12 11 5 49 2
53 -48 52 l-48 0 0 -531z"/>
<path d="M735 5520 c-3 -5 -14 -10 -24 -10 -13 0 -17 -8 -17 -35 1 -19 6 -35
11 -35 6 0 6 -3 -1 -8 -13 -9 -13 -64 1 -74 7 -5 6 -8 -1 -8 -13 0 -13 -70 1
-70 6 0 6 -3 -1 -8 -13 -9 -13 -64 1 -74 6 -5 5 -8 -3 -8 -8 0 -10 -8 -6 -25
4 -15 1 -32 -7 -42 -10 -12 -10 -15 -1 -9 15 9 18 -67 8 -179 -1 -11 2 -28 6
-37 5 -11 5 -18 -1 -18 -7 0 -7 -9 -1 -25 6 -16 6 -26 -1 -31 -7 -4 -6 -10 1
-19 6 -7 7 -15 3 -18 -9 -6 -8 -121 2 -137 3 -5 2 -10 -4 -10 -7 0 -7 -8 -1
-25 5 -13 6 -27 1 -29 -11 -7 -1 -66 13 -67 68 -4 86 -2 91 9 2 6 -1 12 -7 12
-7 0 -7 4 1 13 6 8 8 17 5 20 -10 10 -11 50 -2 70 6 11 5 17 -2 17 -7 0 -8 6
-1 18 6 11 6 24 1 32 -5 9 -5 19 2 27 7 9 7 13 -2 13 -10 0 -10 3 0 15 9 11 9
15 1 15 -8 0 -9 5 -2 18 6 11 6 24 1 32 -5 9 -5 19 2 27 7 9 7 13 -2 13 -10 0
-10 3 0 15 10 12 10 15 0 15 -10 0 -10 3 0 15 7 8 9 15 4 15 -5 0 -9 16 -9 35
0 19 4 35 9 35 5 0 3 7 -4 15 -10 12 -10 15 1 15 9 0 10 3 4 8 -13 9 -15 42
-3 42 6 0 5 6 -2 15 -7 9 -8 15 -2 15 11 0 10 25 -1 36 -4 4 -2 13 4 21 9 10
8 13 -1 13 -10 0 -10 3 -1 14 9 11 9 15 -1 19 -10 4 -10 6 1 6 11 1 11 4 1 16
-10 12 -10 15 0 15 10 0 10 3 1 14 -9 10 -9 16 -1 21 8 5 8 11 -1 21 -9 11 -9
14 1 14 9 0 9 4 2 13 -7 8 -7 18 -2 27 5 8 5 21 2 29 -9 20 -9 42 1 58 4 6 3
14 -1 17 -5 3 -8 17 -7 31 2 14 0 23 -5 20 -5 -3 -11 1 -13 7 -4 10 -6 9 -6
-1 -1 -10 -4 -11 -15 -2 -10 8 -16 9 -21 1z"/>
<path d="M360 5443 c0 -7 -12 -13 -27 -13 l-28 0 2 -405 c2 -315 0 -404 -10
-398 -9 5 -9 3 0 -8 9 -11 12 -51 10 -130 l-2 -114 48 0 c26 0 47 3 47 8 0 4
4 6 9 2 6 -3 8 4 5 17 -3 13 -7 30 -8 38 -2 8 2 21 8 29 8 11 8 13 -1 7 -20
-11 -15 12 5 24 16 11 16 11 0 6 -12 -3 -18 0 -18 10 0 8 5 12 11 8 8 -4 8 -1
2 12 -11 23 -10 115 2 134 5 8 4 11 -2 7 -6 -4 -9 14 -8 46 2 33 7 51 14 49 6
-1 11 3 11 9 0 6 -6 9 -14 6 -11 -5 -14 3 -12 31 1 21 6 44 11 51 5 10 4 12
-3 7 -7 -4 -12 -2 -12 3 0 6 6 11 13 11 7 0 8 3 2 8 -13 9 -13 111 -1 131 6
10 5 12 -2 7 -7 -4 -12 -2 -12 3 0 6 6 11 13 11 7 0 8 3 2 8 -13 9 -16 74 -3
66 7 -4 7 0 1 12 -12 23 -11 114 1 133 6 10 5 12 -2 7 -7 -4 -12 -2 -12 3 0 6
6 11 13 11 7 0 8 3 2 8 -13 9 -16 74 -3 66 7 -4 7 0 0 12 -5 11 -8 32 -7 47 3
24 1 26 -12 16 -12 -10 -16 -10 -24 2 -6 10 -9 10 -9 2z"/>
<path d="M1155 5440 c5 -7 0 -11 -11 -10 -52 6 -54 3 -52 -58 1 -31 -1 -63 -5
-70 -5 -6 -5 -12 0 -12 4 0 8 -32 8 -70 0 -58 -3 -69 -15 -65 -13 4 -13 4 0
-7 16 -13 19 -65 6 -86 -4 -7 -3 -12 3 -12 10 0 7 -31 -4 -50 -3 -6 -2 -10 3
-10 10 0 9 -30 -2 -48 -4 -6 -3 -12 3 -12 6 0 8 -7 4 -16 -5 -13 -2 -15 15 -9
14 4 22 2 22 -5 0 -8 6 -8 20 0 15 8 20 8 20 -2 0 -8 3 -9 10 -2 8 8 13 275
10 499 0 20 -7 35 -21 43 -14 9 -19 9 -14 2z"/>
<path d="M1755 5414 c-10 -8 -15 -14 -11 -14 4 0 -1 -13 -10 -29 -10 -17 -21
-28 -26 -25 -4 3 -5 -2 -2 -10 3 -9 1 -16 -5 -16 -6 0 -10 -3 -9 -7 4 -14 -66
-142 -74 -137 -4 3 -5 -3 -1 -12 5 -14 3 -16 -11 -11 -11 4 -15 3 -10 -4 8
-14 -26 -90 -38 -83 -5 3 -8 2 -7 -3 1 -4 0 -11 -1 -15 -1 -5 -3 -11 -4 -15
-7 -24 -31 -63 -39 -63 -6 0 -7 -3 -4 -7 4 -3 2 -12 -5 -20 -27 -33 53 -39 82
-6 11 13 20 26 21 31 1 4 5 6 11 4 5 -1 6 3 3 9 -15 23 15 56 51 57 19 1 39 4
44 7 5 3 11 1 15 -4 3 -6 15 -7 29 -1 12 4 28 5 35 0 8 -4 30 -6 50 -3 76 9
91 9 91 1 0 -4 6 -5 13 -2 17 6 38 -17 40 -45 1 -11 3 -18 5 -16 3 2 14 -10
26 -27 18 -26 27 -31 59 -31 20 1 39 2 42 2 3 1 -2 16 -12 34 -9 17 -16 35
-15 40 1 4 -1 7 -6 7 -4 0 -23 30 -42 68 -19 37 -40 73 -47 80 -6 6 -15 22
-19 35 -4 12 -9 24 -13 27 -16 13 -61 112 -55 122 4 6 3 8 -4 5 -6 -4 -19 12
-32 38 -12 25 -26 43 -31 39 -5 -3 -9 0 -9 7 0 10 -3 10 -12 1 -7 -7 -17 -8
-27 -2 -10 5 -23 3 -36 -6z m55 -87 c0 -4 6 -15 15 -24 9 -8 13 -23 10 -31 -3
-9 -3 -13 1 -9 10 9 46 -62 38 -75 -4 -7 -3 -8 4 -4 11 6 13 2 12 -19 -1 -3 6
-13 15 -21 20 -21 19 -31 -5 -37 -11 -3 -20 0 -20 6 0 7 -5 5 -10 -3 -8 -12
-11 -13 -19 -1 -7 11 -10 11 -16 0 -6 -9 -10 -8 -16 7 -7 17 -8 17 -8 2 -1
-20 -21 -25 -21 -6 0 9 -3 9 -12 0 -9 -9 -14 -7 -25 6 -12 16 -13 16 -7 0 3
-10 1 -18 -5 -18 -6 0 -11 5 -11 11 0 8 -5 8 -15 -1 -12 -10 -15 -10 -15 1 0
11 -2 11 -10 -1 -5 -8 -12 -11 -16 -7 -4 3 -2 12 3 19 6 7 34 59 63 116 29 56
57 101 62 100 5 -2 9 -7 8 -11z"/>
<path d="M2995 5416 c-16 -11 -18 -30 -17 -194 l1 -182 -27 27 c-15 15 -26 32
-24 38 2 5 0 7 -4 3 -10 -11 -35 12 -27 25 3 5 2 7 -4 4 -11 -7 -119 90 -116
104 2 4 -4 6 -12 3 -9 -4 -15 0 -15 10 0 9 -6 15 -12 14 -7 -2 -12 3 -11 10 2
6 -3 11 -10 10 -6 -2 -11 3 -10 10 2 6 -3 11 -10 10 -6 -2 -11 3 -9 10 1 8 -2
11 -6 8 -12 -7 -58 33 -54 46 1 5 -1 7 -6 4 -5 -3 -18 5 -29 18 -13 15 -30 23
-49 21 -27 -1 -29 -4 -30 -43 0 -23 -3 -44 -5 -46 -2 -2 -2 -57 1 -121 3 -64
2 -119 -3 -122 -4 -2 -5 -8 -3 -12 3 -4 6 -39 7 -77 1 -38 6 -72 11 -75 4 -3
22 -4 38 -1 l30 4 1 122 c0 66 0 153 -1 191 l-1 70 34 -37 c19 -21 37 -35 41
-31 3 3 6 -1 6 -11 0 -9 5 -14 10 -11 9 6 14 -8 11 -28 -1 -5 3 -6 9 -2 13 8
81 -55 73 -68 -3 -6 -2 -8 3 -4 13 8 47 -20 39 -32 -3 -6 0 -9 8 -6 14 6 69
-49 59 -60 -3 -3 2 -3 13 1 15 6 17 4 12 -10 -4 -9 -3 -15 1 -12 13 8 53 -24
46 -36 -4 -6 -3 -8 3 -5 6 4 18 -2 28 -13 10 -11 30 -20 45 -20 25 0 27 3 26
38 -2 20 1 45 6 54 5 10 3 18 -4 20 -8 3 -8 9 0 24 7 14 8 24 1 31 -6 6 -6 19
0 36 7 17 7 27 1 27 -6 0 -10 5 -10 11 0 5 4 8 8 5 5 -3 9 1 9 9 0 8 -3 15 -7
15 -9 0 -5 94 4 109 4 6 2 11 -3 11 -6 0 -11 5 -11 11 0 5 4 8 9 4 6 -3 6 7 1
26 -5 18 -7 36 -4 40 3 5 0 17 -5 26 -7 12 -10 14 -11 4 0 -10 -3 -11 -13 -2
-10 8 -18 7 -32 -3z"/>
<path d="M3606 5421 c-3 -5 -23 -7 -43 -5 -23 2 -33 0 -25 -5 8 -4 14 -12 14
-16 0 -4 -6 -12 -14 -16 -7 -5 -8 -9 -2 -9 14 0 14 -33 0 -42 -8 -5 -7 -8 2
-8 9 0 10 -5 3 -19 -6 -10 -7 -21 -4 -25 12 -12 11 -61 -1 -68 -8 -5 -7 -8 2
-8 9 0 10 -5 3 -19 -6 -10 -7 -21 -3 -25 10 -10 11 -78 1 -97 -5 -9 -5 -19 -2
-23 12 -12 11 -61 -1 -68 -8 -5 -7 -8 2 -8 7 0 11 -4 8 -8 -2 -4 -1 -14 3 -21
10 -16 331 -22 331 -6 0 6 5 3 10 -5 8 -12 10 -12 10 -1 0 8 3 12 6 8 4 -3 28
2 55 12 26 10 50 17 53 15 4 -2 4 -1 1 2 -2 4 7 15 20 26 59 46 91 197 59 274
-8 19 -12 40 -8 46 5 7 2 8 -6 3 -10 -6 -12 -4 -7 9 4 9 3 15 -1 12 -11 -7
-42 30 -34 40 4 4 2 4 -5 0 -6 -3 -16 2 -22 11 -6 10 -11 15 -11 10 0 -4 -13
-1 -29 7 -16 9 -31 12 -35 9 -3 -4 -6 -2 -6 4 0 6 -12 8 -26 5 -21 -4 -25 -2
-19 9 7 11 6 12 -6 2 -12 -10 -18 -10 -29 0 -9 8 -11 8 -6 0 7 -13 -40 -13
-61 0 -6 4 -14 3 -17 -1 -6 -10 -46 -10 -63 1 -6 4 -14 3 -17 -1 -6 -10 -46
-10 -63 1 -6 4 -14 3 -17 -2z m58 -83 c-4 -6 1 -6 14 1 15 8 23 8 27 0 4 -6
14 -7 24 -3 20 9 121 13 121 4 0 -3 12 -5 28 -4 79 3 133 -54 137 -144 4 -67
-4 -114 -16 -106 -5 3 -6 -2 -3 -10 4 -10 1 -16 -7 -16 -7 0 -9 -3 -6 -6 9
-10 -36 -42 -69 -50 -16 -3 -86 -8 -156 -11 l-128 -5 0 179 c0 172 1 179 20
180 12 1 18 -3 14 -9z"/>
<path d="M5126 5422 c-3 -5 -26 -8 -51 -7 -25 2 -45 -1 -45 -7 0 -5 -6 -6 -12
-2 -10 6 -10 4 0 -8 7 -8 10 -23 6 -32 -6 -16 -4 -17 46 -20 14 -1 31 -5 38
-9 6 -5 17 -5 24 -1 19 12 78 12 78 1 0 -7 5 -6 12 1 7 7 16 12 20 12 5 0 8
-71 7 -157 0 -87 0 -184 0 -215 l1 -58 53 0 c28 0 47 4 41 8 -13 8 -15 42 -3
42 5 0 4 12 -2 27 -6 16 -6 30 0 36 5 5 6 21 2 36 -6 24 -6 125 2 196 1 17 -1
40 -5 53 -5 15 -4 21 2 17 6 -3 10 -2 10 3 0 5 10 9 23 8 12 -1 21 -7 19 -15
-1 -7 2 -10 8 -6 6 3 8 10 6 14 -6 10 86 7 103 -3 10 -6 12 -5 7 3 -5 8 0 10
18 7 25 -5 33 7 26 39 -1 5 -2 17 -3 27 -1 13 -5 15 -22 6 -11 -6 -22 -10 -25
-8 -19 11 -50 18 -46 11 7 -10 -97 -6 -115 5 -7 4 -9 3 -6 -3 8 -12 -94 -10
-114 3 -8 4 -9 3 -5 -4 9 -15 1 -15 -26 -1 -15 8 -19 8 -14 0 4 -6 3 -11 -3
-11 -5 0 -12 6 -14 13 -4 9 -6 8 -6 -2 -1 -10 -4 -11 -15 -2 -8 7 -17 8 -20 3z"/>
<path d="M6480 5422 c0 -4 -17 -8 -37 -8 -23 1 -38 -4 -38 -11 0 -6 -3 -15 -7
-19 -4 -4 -3 -13 3 -21 9 -9 8 -13 0 -13 -8 0 -9 -5 -1 -19 5 -11 6 -22 2 -25
-10 -6 -9 -36 2 -54 4 -6 3 -12 -3 -12 -6 0 -8 -6 -5 -13 3 -10 -18 -13 -96
-12 -60 0 -100 4 -100 10 0 5 -4 4 -9 -4 -8 -13 -12 -13 -27 0 -10 8 -15 9
-12 4 4 -7 -18 -11 -63 -12 -37 0 -66 4 -63 8 3 5 -1 9 -8 9 -8 0 -9 3 -3 8
11 7 13 57 3 67 -3 3 -2 22 2 41 5 21 4 34 -2 34 -6 0 -5 6 2 15 14 17 13 17
-51 19 -44 1 -46 0 -39 -20 5 -13 4 -26 -3 -33 -7 -7 -7 -11 -1 -11 6 0 10
-10 9 -22 -2 -14 -8 -22 -16 -20 -11 2 -11 -1 1 -10 12 -10 15 -36 14 -119 -1
-59 -4 -112 -8 -118 -4 -6 -2 -11 3 -11 6 0 11 -5 11 -11 0 -6 -8 -8 -17 -5
-17 6 -17 5 -1 -7 13 -11 15 -16 6 -25 -9 -9 -9 -12 0 -12 7 0 12 -5 12 -11 0
-6 -8 -8 -17 -5 -16 5 -16 5 -2 -6 9 -7 14 -19 11 -27 -6 -19 13 -28 54 -23
35 4 36 5 32 43 -2 22 -1 39 2 39 3 0 4 34 2 75 l-3 75 25 -10 c14 -5 26 -6
26 -1 0 8 83 6 107 -3 7 -3 13 -2 13 2 0 4 22 7 50 7 27 0 50 -3 50 -6 0 -3 7
-6 15 -6 8 0 12 4 9 9 -7 10 -1 10 30 -2 16 -6 26 -6 26 0 0 5 7 7 16 3 9 -3
14 -13 11 -24 -3 -11 -1 -22 4 -25 6 -4 6 -11 -1 -19 -8 -9 -8 -15 0 -20 7 -4
7 -12 0 -26 -8 -14 -7 -19 1 -19 9 0 9 -3 0 -14 -8 -10 -9 -16 -1 -21 6 -4 7
-12 1 -24 -13 -24 15 -38 59 -30 19 3 31 7 27 8 -4 0 -3 11 4 22 6 12 7 19 2
16 -4 -3 -8 19 -8 49 0 30 4 54 8 54 5 0 5 6 1 12 -5 7 -7 31 -6 53 2 22 3 45
4 50 0 6 -2 31 -5 57 -3 32 -2 46 6 41 6 -4 7 -1 2 6 -4 7 -7 42 -7 77 0 35
-2 64 -4 64 -2 0 -4 -4 -4 -8z"/>
<path d="M7046 5422 c-3 -5 -27 -8 -52 -6 -29 1 -42 -1 -34 -6 20 -12 20 -89
1 -108 -15 -14 -14 -15 1 -10 14 6 16 1 14 -30 -1 -21 -5 -43 -9 -49 -4 -6 -3
-14 2 -17 10 -7 9 -25 -2 -42 -3 -6 -3 -14 0 -18 12 -11 10 -185 -2 -178 -5 3
-4 -1 2 -10 7 -8 10 -18 6 -21 -8 -9 -31 -8 247 -9 224 -1 235 0 235 18 0 11
4 24 8 31 4 6 3 14 -2 17 -5 4 -97 6 -204 6 l-195 1 1 79 c0 75 1 79 20 69 13
-8 17 -8 13 -1 -4 6 2 10 14 9 11 -1 20 -5 20 -10 0 -5 6 -5 13 0 14 11 47 13
47 3 0 -4 7 -7 15 -7 8 0 12 4 9 9 -6 10 -6 10 34 -1 23 -7 30 -7 26 1 -5 7
-2 9 8 5 13 -4 16 2 16 29 0 34 0 34 -46 35 -26 1 -57 0 -70 -1 -13 -1 -30 4
-39 12 -14 11 -15 11 -9 0 6 -10 -1 -13 -30 -10 l-39 3 0 65 c0 60 2 65 23 66
12 1 22 -4 22 -10 0 -7 3 -7 8 -1 9 13 46 20 38 7 -3 -5 1 -9 9 -9 8 0 12 4 9
9 -3 4 20 7 50 6 34 -2 52 -6 48 -13 -3 -5 1 -4 10 3 11 9 18 10 23 2 3 -5 12
-10 18 -10 7 0 6 4 -3 10 -9 6 11 8 58 6 l72 -4 0 40 c0 27 -4 38 -12 35 -7
-2 -23 0 -36 4 -13 5 -21 5 -18 0 7 -10 -97 -6 -115 5 -7 4 -9 3 -6 -3 8 -12
-94 -10 -114 3 -8 4 -9 3 -5 -4 9 -15 1 -15 -26 -1 -15 8 -19 8 -14 0 4 -6 3
-11 -3 -11 -5 0 -12 6 -14 13 -4 9 -6 8 -6 -2 -1 -10 -4 -11 -15 -2 -8 7 -17
8 -20 3z"/>
<path d="M8506 5418 c3 -5 -2 -8 -12 -6 -17 3 -19 -4 -18 -79 1 -57 -3 -80
-10 -76 -6 3 -5 0 2 -8 6 -7 12 -17 12 -22 0 -4 -6 -5 -12 -1 -10 6 -10 4 0
-8 9 -12 10 -18 2 -23 -7 -4 -8 -11 -1 -18 12 -16 12 -29 -2 -46 -7 -8 -7 -12
-1 -9 7 5 10 -28 9 -100 l-1 -107 45 5 46 5 -3 58 c-2 38 2 64 10 75 7 9 8 13
2 9 -8 -5 -12 7 -12 35 -1 30 2 38 8 28 6 -8 10 -11 10 -6 0 5 10 0 23 -11 12
-12 38 -30 57 -41 19 -11 34 -24 33 -29 -1 -5 3 -10 10 -10 20 0 128 -73 122
-83 -3 -5 0 -12 6 -16 8 -4 9 -3 5 4 -10 16 0 15 29 -4 31 -20 169 -26 153 -7
-5 7 -18 15 -29 18 -11 4 -16 11 -13 17 4 6 2 8 -4 4 -6 -3 -16 0 -24 7 -7 7
-21 16 -30 20 -11 4 -16 13 -12 24 5 14 4 15 -4 4 -8 -12 -13 -11 -31 1 -11 8
-18 19 -13 24 4 5 3 6 -1 2 -9 -7 -51 16 -150 82 -62 42 -88 70 -51 56 8 -3
13 -2 10 3 -3 4 6 14 19 21 14 7 25 17 25 22 0 4 6 8 13 8 6 0 25 11 41 25 28
24 40 29 59 26 5 -1 6 3 2 9 -6 9 8 14 28 11 5 -1 6 2 3 7 -6 9 42 37 57 33 5
-1 6 3 2 9 -3 5 -3 10 2 10 4 0 22 12 38 26 17 15 22 23 13 20 -11 -3 -18 0
-18 7 0 7 -3 8 -8 2 -4 -5 -16 -10 -27 -10 -11 0 -23 5 -27 10 -5 6 -8 6 -8
-2 0 -6 -9 -10 -20 -8 -11 2 -19 -1 -17 -7 1 -6 -4 -13 -12 -16 -9 -3 -11 0
-6 9 5 8 4 11 -1 6 -5 -5 -9 -13 -9 -18 0 -5 -4 -9 -10 -10 -5 0 -14 -7 -18
-15 -5 -8 -12 -12 -18 -9 -5 4 -9 2 -9 -3 0 -9 -103 -83 -170 -124 l-28 -16 2
98 1 98 -33 10 c-20 7 -30 7 -26 0z"/>
<path d="M9415 5421 c-3 -5 -6 -22 -7 -38 -1 -15 -6 -34 -12 -42 -8 -11 -8
-13 2 -7 6 4 12 2 12 -3 0 -6 -6 -11 -12 -11 -10 0 -10 -2 -2 -8 13 -8 13 -80
0 -101 -6 -10 -5 -12 2 -7 16 10 15 -7 0 -23 -10 -11 -10 -13 0 -7 6 4 12 2
12 -3 0 -6 -6 -11 -12 -11 -9 0 -9 -3 -3 -8 13 -9 13 -81 1 -101 -6 -10 -5
-12 2 -7 16 10 15 -7 0 -23 -10 -11 -10 -13 0 -7 6 4 12 2 12 -3 0 -6 -6 -11
-12 -11 -8 0 -9 -3 -3 -8 14 -10 18 -42 6 -56 -8 -9 -1 -13 26 -14 20 -2 40
-5 44 -8 17 -10 20 26 20 234 0 290 1 274 -13 269 -7 -2 -23 0 -35 4 -12 5
-25 4 -28 0z"/>
<path d="M10024 5421 c6 -8 0 -10 -18 -5 -18 4 -26 2 -27 -7 -1 -18 -1 -482 0
-489 1 -6 291 -3 332 4 18 3 29 0 29 -7 0 -8 4 -7 9 2 5 8 18 12 30 8 12 -3
19 -1 15 4 -5 8 12 13 43 12 7 -1 11 3 8 7 -8 12 23 33 36 24 7 -4 9 -3 5 4
-3 6 5 27 19 48 14 20 25 47 25 60 0 12 3 25 8 27 10 7 6 97 -6 127 -5 14 -8
33 -6 43 1 10 -1 15 -7 12 -9 -6 -14 9 -9 30 1 5 -2 7 -6 3 -8 -9 -40 32 -36
45 1 5 -2 6 -6 3 -5 -3 -27 3 -48 13 -21 11 -43 17 -48 13 -5 -3 -6 3 -2 13 5
15 4 16 -8 6 -15 -12 -64 -10 -87 5 -7 4 -10 3 -6 -3 8 -12 -94 -10 -114 3 -7
4 -9 3 -6 -3 8 -12 -94 -10 -114 3 -8 4 -9 3 -5 -5z m66 -83 c0 -10 2 -10 9 0
4 8 12 14 16 14 4 0 12 -6 16 -14 7 -10 9 -10 9 0 0 6 5 12 11 12 5 0 7 -6 3
-12 -6 -10 -4 -10 8 0 12 9 18 10 23 2 4 -6 14 -8 24 -5 29 12 61 13 61 1 0
-6 4 -5 9 3 5 8 11 9 15 3 3 -6 15 -8 26 -5 12 3 22 -1 26 -11 3 -9 10 -16 16
-16 5 0 6 5 3 10 -3 6 -1 10 5 10 6 0 13 -7 16 -15 4 -8 13 -15 21 -15 9 0 13
-6 9 -15 -3 -8 -2 -14 2 -12 4 1 8 -2 9 -7 1 -5 6 -12 12 -15 13 -9 21 -120 9
-127 -5 -3 -6 -9 -3 -14 12 -20 -46 -97 -64 -86 -5 3 -11 -1 -15 -9 -3 -10
-16 -13 -35 -11 -17 2 -29 0 -26 -4 8 -13 -204 -12 -223 2 -18 13 -22 44 -9
65 4 6 4 14 -1 17 -9 6 -9 107 1 123 4 6 4 14 -1 16 -10 7 -8 88 2 106 7 10 5
12 -4 6 -9 -5 -11 -4 -6 3 10 16 26 15 26 0z"/>
<path d="M11096 5423 c-5 -5 -34 -12 -71 -15 -12 -1 -30 -18 -33 -30 -1 -5 -3
-9 -3 -10 -2 -3 -9 -107 -9 -123 0 -51 23 -95 51 -95 5 0 8 -3 6 -7 -3 -5 79
-8 181 -9 127 0 186 -4 185 -11 -10 -51 -10 -63 -2 -68 5 -4 9 -11 9 -16 0 -6
-6 -7 -12 -3 -9 5 -9 2 1 -9 9 -12 10 -17 2 -17 -7 0 -10 -4 -6 -9 3 -6 -68
-10 -175 -11 l-181 -1 5 40 4 40 -35 -3 c-41 -3 -54 -20 -48 -61 9 -52 25 -73
64 -80 46 -10 347 -8 363 1 7 4 8 3 4 -4 -4 -7 -3 -12 3 -12 5 0 13 5 16 10 4
6 10 8 15 5 4 -3 18 7 30 22 12 16 18 22 14 14 -5 -10 -3 -12 5 -7 8 5 9 12 2
20 -5 6 -7 17 -3 23 9 14 7 93 -2 150 -6 33 -13 42 -32 47 -14 4 -23 10 -20
14 2 4 -79 6 -181 4 l-185 -3 3 23 c2 13 0 29 -4 36 -5 6 -4 12 0 12 5 0 7 15
5 34 -4 34 6 41 33 24 6 -4 17 -3 25 2 9 5 19 5 27 -1 7 -7 18 -7 30 -1 21 11
73 10 92 -3 9 -5 12 -4 8 2 -4 6 13 9 43 9 28 -1 50 -5 50 -10 0 -5 6 -3 14 3
10 9 15 8 20 -4 3 -8 0 -15 -7 -15 -8 0 -8 -3 2 -9 10 -6 10 -10 1 -16 -19
-12 10 -26 30 -15 11 6 22 5 30 -3 10 -9 11 -9 6 0 -3 6 2 16 11 22 12 7 13
10 4 11 -11 0 -11 3 0 17 12 14 12 16 0 8 -11 -6 -13 -3 -9 12 4 14 -2 26 -18
38 -13 10 -21 21 -19 25 3 5 -4 6 -15 3 -11 -3 -33 0 -50 6 -17 5 -28 6 -25 2
6 -10 -99 -6 -116 5 -7 4 -9 3 -6 -3 7 -11 -93 -10 -111 1 -5 3 -12 3 -16 -1z"/>
<path d="M3826 4752 c-4 -4 -16 -8 -27 -8 -37 -3 -42 -4 -36 -11 4 -3 1 -13
-6 -21 -6 -9 -7 -13 -1 -9 10 6 14 -27 18 -150 0 -22 4 -39 9 -36 4 2 8 -7 9
-21 2 -46 3 -51 8 -56 13 -13 30 -63 24 -72 -4 -6 -2 -8 4 -4 6 3 13 -3 17
-14 17 -53 138 -141 215 -157 17 -3 30 -9 30 -14 0 -5 7 -6 15 -3 8 4 23 3 32
-1 10 -5 28 -7 41 -6 13 2 30 -3 38 -9 11 -10 14 -10 14 0 0 10 3 10 14 1 10
-8 16 -9 21 -1 3 6 11 7 17 4 6 -4 116 -7 245 -7 170 0 231 -3 226 -11 -5 -8
-3 -8 8 0 20 16 241 16 232 0 -5 -8 -3 -8 8 0 19 16 221 16 212 0 -5 -8 -3 -8
8 0 20 16 641 16 632 0 -5 -8 -2 -8 8 0 9 8 78 11 205 11 105 0 196 3 202 7 7
4 12 2 12 -5 0 -8 5 -7 17 2 14 12 15 12 9 1 -7 -12 -4 -12 14 -2 12 7 35 10
51 8 15 -3 26 -1 23 3 -2 4 18 10 46 14 27 4 53 11 56 16 3 6 12 5 20 -2 12
-10 15 -10 12 2 -2 8 4 13 15 13 10 -1 16 0 13 3 -3 3 14 19 37 36 23 17 46
36 50 44 5 7 13 10 19 7 7 -4 8 -2 4 4 -9 14 18 55 28 44 4 -4 7 -2 6 3 -1 6
-1 13 0 18 5 15 8 27 9 43 0 8 5 12 11 9 6 -4 7 1 3 11 -4 11 -3 15 4 11 7 -5
9 0 6 13 -3 11 -2 28 2 37 8 18 12 50 16 113 1 19 7 41 12 48 6 8 6 12 -2 12
-11 0 -11 21 0 30 4 3 3 14 -1 25 -7 20 -15 20 -211 19 -112 -1 -207 -2 -211
-3 -5 0 -8 -50 -8 -110 0 -112 -3 -119 -39 -97 -9 6 -12 5 -8 -1 7 -12 -122
-11 -142 1 -9 6 -12 5 -8 -1 8 -13 -61 -11 -82 1 -9 6 -12 5 -8 -1 7 -12 -122
-11 -142 1 -9 6 -12 5 -8 -1 8 -13 -61 -11 -82 1 -9 6 -12 5 -8 -1 7 -12 -122
-11 -142 1 -9 6 -12 5 -8 -1 8 -13 -61 -11 -82 1 -9 6 -12 5 -8 -1 7 -12 -122
-11 -142 1 -9 6 -12 5 -8 -1 8 -13 -61 -11 -82 1 -9 6 -12 5 -8 -1 7 -12 -122
-11 -142 1 -9 6 -12 5 -8 -1 8 -12 -152 -11 -172 1 -9 6 -12 5 -8 0 7 -13
-293 -12 -312 0 -9 6 -12 5 -8 -1 7 -12 -192 -11 -212 1 -9 6 -12 5 -8 -1 8
-13 -61 -11 -82 1 -10 6 -12 5 -7 -2 8 -14 -20 -12 -43 2 -9 6 -12 5 -7 -2 4
-7 -14 -10 -54 -9 l-59 1 2 47 c1 26 -1 45 -5 43 -4 -3 -6 1 -3 8 3 7 6 38 8
69 l2 56 -55 -2 c-30 -1 -61 3 -69 9 -10 7 -13 7 -8 0 7 -12 -210 -13 -229 -1
-6 3 -14 3 -18 -1z"/>
<path d="M7993 4753 c5 -8 -18 -10 -68 -8 -64 2 -77 0 -85 -15 -5 -9 -6 -20
-3 -24 11 -11 12 -36 1 -36 -6 0 -5 -7 3 -16 10 -13 10 -17 0 -24 -8 -4 -9 -9
-3 -11 5 -2 13 -26 16 -54 3 -27 8 -63 12 -80 3 -16 6 -38 7 -47 1 -9 6 -14
11 -11 5 4 7 -3 4 -15 -4 -12 -2 -20 2 -17 7 4 26 -34 21 -42 0 -2 8 -12 19
-23 12 -12 18 -25 15 -31 -4 -5 -3 -8 2 -7 13 4 73 -44 67 -54 -3 -5 0 -8 7
-7 8 1 25 -3 39 -9 83 -37 120 -50 114 -40 -5 7 -3 8 6 3 6 -4 29 -10 49 -12
20 -3 41 -9 47 -14 6 -5 14 -6 18 -2 9 9 36 13 36 5 0 -4 205 -6 455 -6 335 1
453 -1 448 -10 -5 -8 -3 -8 8 0 20 16 241 16 232 0 -5 -8 -3 -8 8 0 20 16 721
16 712 0 -4 -7 -1 -6 8 1 9 7 32 11 53 10 20 -2 39 0 41 3 3 4 23 4 45 0 22
-4 42 -4 45 -1 3 6 45 12 107 15 14 0 24 4 21 8 -2 5 5 8 16 8 11 0 46 12 78
27 32 15 61 26 66 25 4 -1 6 4 5 10 -2 7 5 12 14 12 10 -1 16 3 15 10 -1 6 3
10 10 9 7 -2 10 3 8 10 -3 6 6 24 20 39 14 15 25 34 25 43 0 8 5 15 12 15 6 0
8 3 5 6 -3 4 -1 16 5 28 6 11 13 34 15 51 1 16 6 37 9 45 4 8 8 40 10 70 3 30
6 73 8 95 5 57 0 65 -40 59 -18 -3 -42 -1 -52 5 -11 6 -23 7 -26 3 -12 -11
-246 -9 -246 3 0 7 -3 7 -8 0 -4 -6 -15 -11 -24 -12 -10 0 -22 -1 -26 -2 -4 0
-7 -31 -6 -68 1 -38 -3 -74 -10 -82 -8 -11 -8 -13 0 -8 8 4 11 -4 11 -26 -1
-32 -3 -34 -39 -33 -21 0 -38 4 -38 9 0 5 -6 5 -13 -2 -10 -8 -17 -7 -27 2 -7
6 -10 7 -7 1 7 -13 -121 -13 -142 0 -9 6 -12 5 -8 -1 8 -13 -61 -11 -82 1 -9
6 -12 5 -8 -1 7 -12 -122 -11 -142 1 -9 6 -12 5 -8 -1 8 -13 -61 -11 -82 1 -9
6 -12 5 -8 -1 7 -12 -122 -11 -142 1 -9 6 -12 5 -8 -1 8 -12 -152 -11 -172 1
-9 6 -12 5 -8 0 7 -13 -293 -12 -312 0 -9 6 -12 5 -8 -1 7 -12 -202 -11 -222
1 -9 6 -12 5 -8 -1 7 -12 -122 -11 -142 1 -9 6 -12 5 -8 -1 8 -13 -61 -11 -82
1 -9 6 -12 5 -8 -1 7 -12 -122 -11 -142 1 -9 6 -12 5 -8 -1 8 -13 -61 -11 -82
1 -8 6 -12 5 -8 0 3 -6 -30 -9 -81 -9 l-87 0 0 28 c-1 15 4 27 10 27 5 0 4 4
-3 9 -19 12 -19 15 -2 36 8 11 10 16 4 12 -14 -8 -13 51 0 72 16 26 -14 33
-141 35 -70 1 -135 6 -142 10 -9 6 -12 5 -8 -1z"/>
</g>
</svg>
